<?xml version="1.0" encoding="utf-8"?>
<!-- Generator: Adobe Illustrator 27.3.1, SVG Export Plug-In . SVG Version: 6.00 Build 0)  -->
<svg version="1.1" id="_x32_" xmlns="http://www.w3.org/2000/svg" xmlns:xlink="http://www.w3.org/1999/xlink" x="0px" y="0px"
	 viewBox="0 0 512 512" style="enable-background:new 0 0 512 512;" xml:space="preserve">
<style type="text/css">
	.st0{fill:#333333;}
</style>
<g>
	<path class="st0" d="M436,287.5c32.5,0,58.9-26.3,58.9-58.9s-26.4-58.9-58.9-58.9s-58.9,26.4-58.9,58.9
		C377.1,261.2,403.4,287.5,436,287.5z"/>
	<path class="st0" d="M511.3,344.3c-2.6-15.8-15.7-37.8-25.5-47.7c-1.3-1.3-7.1-1.6-8.7-0.6c-12,7.4-26.1,11.7-41.2,11.7
		s-29.2-4.3-41.2-11.7c-1.6-1-7.4-0.7-8.7,0.6c-2.8,2.8-5.8,6.4-8.7,10.7c7.9,14.9,14.2,30.8,16.5,44.5s1.5,26.7-2.1,38.5
		c13,4.7,28.7,6.8,44.2,6.8C476.4,397,517.8,383,511.3,344.3z"/>
	<path class="st0" d="M254.5,262.7c52.7,0,95.4-42.7,95.4-95.4s-42.7-95.4-95.4-95.4s-95.4,42.7-95.4,95.4S201.8,262.7,254.5,262.7z
		"/>
	<path class="st0" d="M335.3,277.3c-2.1-2.1-11.5-2.6-14-1c-19.4,12-42.3,19-66.8,19s-47.3-7-66.7-19c-2.6-1.6-12-1.1-14,1
		c-16,16-37.1,51.8-41.4,77.3c-10.5,62.8,56.6,85.5,122.1,85.5s132.6-22.7,122.2-85.5C372.4,329.1,351.3,293.3,335.3,277.3z"/>
	<path class="st0" d="M76,287.5c32.5,0,58.9-26.3,58.9-58.9s-26.4-58.9-58.9-58.9s-58.9,26.4-58.9,58.9
		C17.2,261.2,43.5,287.5,76,287.5z"/>
	<path class="st0" d="M115.1,351.7c2.4-14.4,9.2-31.3,17.8-46.9c-2.4-3.3-4.8-6.1-7-8.3c-1.3-1.3-7.1-1.6-8.7-0.6
		c-12,7.4-26.1,11.7-41.2,11.7s-29.2-4.3-41.2-11.7c-1.6-1-7.4-0.7-8.7,0.6c-9.9,9.9-22.9,31.9-25.5,47.7C-5.8,383,35.6,397,76,397
		c14.4,0,29-1.8,41.5-5.8C113.6,379.1,112.8,365.8,115.1,351.7z"/>
</g>
</svg>
