<?xml version="1.0" encoding="utf-8"?>
<!-- Generator: Adobe Illustrator 27.3.1, SVG Export Plug-In . SVG Version: 6.00 Build 0)  -->
<svg version="1.1" id="_x32_" xmlns="http://www.w3.org/2000/svg" xmlns:xlink="http://www.w3.org/1999/xlink" x="0px" y="0px"
	 viewBox="0 0 512 512" style="enable-background:new 0 0 512 512;" xml:space="preserve">
<style type="text/css">
	.st0{fill:#333333;}
</style>
<g>
	<path class="st0" d="M457.1,157.4C407.4,66.4,346.3,20,320.7,53.7c0.8-1,1.5-1.9,2.3-2.8C243.5,134.6,163.9,218.3,84.3,302
		c-10.7-0.3-21.4-0.7-32.1-1c-12-0.4-23.9-0.7-35.9-1.1c-4.4-0.1-8.1,1.6-10.9,5.3c-0.9,1.1-1.6,2.4-2.2,3.9c-0.2,0.5-0.4,1-0.6,1.5
		c-0.4,1-0.8,2.1-1.1,3.2c-0.2,0.7-0.3,1.4-0.5,2.1c-0.2,1.1-0.4,2.2-0.6,3.5c-0.1,0.8-0.2,1.6-0.3,2.4c-0.1,1.3-0.2,2.7-0.2,4
		c0,0.6-0.1,1.2-0.1,1.8c0,0.3,0,0.5,0,0.8c0,0.5,0,1.1,0,1.6c0,1.5,0.1,2.9,0.2,4.4c0,0.7,0.1,1.3,0.2,2c0.1,1.5,0.3,3,0.5,4.6
		c0.1,0.7,0.2,1.3,0.3,2c0.2,1.7,0.5,3.4,0.9,5.1c0.1,0.6,0.2,1.2,0.3,1.8c0.4,2,0.9,4.1,1.3,6.2c0.1,0.3,0.2,0.6,0.2,0.9
		c1.7,7,3.9,14.3,6.5,21.8c0.1,0.3,0.2,0.6,0.4,0.9c1.9,5.2,4,10.5,6.4,15.9c0.2,0.4,0.4,0.9,0.6,1.3c2.6,5.8,5.5,11.6,8.6,17.3
		c24,43.8,53.4,66.2,65.7,50l42.4-52.5c115.3-5.8,230.7-11.6,346-17.4c-0.1,0-0.3,0-0.4,0c8.1-0.3,15.2-3.8,20.6-11
		C526.3,349.4,506.8,248.3,457.1,157.4z M100.2,343.6c0,0-69.6,22.6-71.3,18.9c-12.1-30-7.6-36.5-7.6-36.5l68.2-2.8l199.6-183.3
		l12.8,57.8L100.2,343.6z M475.4,351.4c-1.7,2.4-3.7,4-5.9,5.1c-17.2,7.8-56.6-23.9-92.6-90.4c-42.6-78.7-54.2-155.2-38.2-177.3
		c1.7-2.3,3.7-4,5.9-5c17.2-7.8,56.6,23.9,92.6,90.4C479.8,252.8,491.3,329.3,475.4,351.4z"/>
</g>
</svg>
